<?xml version="1.0" standalone="no"?>
<!DOCTYPE svg PUBLIC "-//W3C//DTD SVG 20010904//EN"
 "http://www.w3.org/TR/2001/REC-SVG-20010904/DTD/svg10.dtd">
<svg version="1.0" xmlns="http://www.w3.org/2000/svg"
 width="640.000000pt" height="1280.000000pt" viewBox="0 0 640.000000 1280.000000"
 preserveAspectRatio="xMidYMid meet">
<g transform="translate(0.000000,1280.000000) scale(0.100000,-0.100000)"
fill="#000000" stroke="none">
<path d="M280 12778 c-24 -13 -53 -36 -64 -51 -21 -28 -21 -30 -24 -1706 l-2
-1678 22 -33 c13 -18 36 -43 51 -54 l28 -21 2896 -3 2895 -2 37 20 c20 12 48
37 61 57 l25 37 3 1644 c1 1116 -1 1656 -8 1682 -13 49 -54 99 -97 116 -27 12
-502 14 -2906 14 l-2873 0 -44 -22z"/>
<path d="M284 9061 c-23 -10 -52 -34 -65 -52 l-24 -34 -3 -4053 c-2 -3601 0
-4056 13 -4082 25 -48 66 -79 120 -90 34 -7 956 -9 2905 -8 2685 3 2857 4
2887 20 41 23 70 61 83 108 7 25 9 1380 8 4061 -3 3810 -4 4026 -20 4056 -10
18 -35 45 -55 60 l-36 28 -2886 2 c-2798 3 -2887 2 -2927 -16z"/>
<path d="M324 591 c-50 -12 -91 -42 -114 -83 -20 -36 -21 -49 -18 -222 3 -210
7 -222 88 -263 l44 -23 2873 0 c3142 0 2912 -5 2966 59 41 49 49 98 45 265 -3
129 -6 156 -23 185 -27 46 -64 72 -116 82 -54 10 -5702 10 -5745 0z"/>
</g>
</svg>
